<svg xmlns="http://www.w3.org/2000/svg" xmlns:xlink="http://www.w3.org/1999/xlink" version="1.1" x="0px" y="0px" viewBox="0 0 25 25" enable-background="new 0 0 25 25" xml:space="preserve"><g><g><path d="M19.879,15.893c-0.059-0.26-0.205-0.506-0.436-0.703s-0.514-0.316-0.805-0.359l-4.699-0.898l1.359,0.891l-2.146,6.645    l-1.209-4.936l-1.208,4.936L8.59,14.822l1.359-0.891L5.25,14.83c-0.292,0.043-0.574,0.162-0.805,0.359    c-0.229,0.197-0.375,0.443-0.434,0.703l-1.394,6.043l2.628,0.902c0.873,0.895,3.315,1.553,6.244,1.615h0.455h0.455    c2.931-0.062,5.372-0.721,6.245-1.615l2.627-0.902L19.879,15.893z"></path></g><polygon points="11.945,14.605 10.861,14.99 11.945,16.531 13.027,14.99  "></polygon><g><path d="M17.043,6.587C16.992,5.43,16.379,5.33,16.379,5.33c0-3.022-2.65-3.776-2.65-3.776l-0.814,1.51V1.051    c0-0.304-0.205-0.505-0.511-0.505h-1.019c-0.307,0-0.511,0.201-0.511,0.505v2.012l-0.764-1.51c0,0-2.651,0.754-2.651,3.776    c0,0-0.611,0.101-0.611,1.258c0,0,1.528,0.505,5.096,0.505C15.514,7.092,17.043,6.587,17.043,6.587"></path><path d="M12.023,14.42c1.154,0,2.77-1.556,3.588-3.574c0.223-0.172,0.486-0.5,0.635-0.893c0.295-0.78,0.1-1.145-0.203-1.299    c0-0.482-0.035-0.945-0.111-1.383c-0.824,0.131-2.125,0.269-3.986,0.269c-1.75,0-3.008-0.121-3.836-0.245    C8.038,7.727,8.001,8.18,8.001,8.655c-0.3,0.154-0.498,0.519-0.203,1.299c0.149,0.393,0.412,0.721,0.636,0.893    C9.254,12.864,10.867,14.42,12.023,14.42"></path></g></g></svg>